{"title":"The.Magnificent.Seven.(2016).HDCAM.x264.AAC.Makintos13","uid":15900563,"size":747005382,"categoryP":"video","categoryS":"movies","magnet":"?xt=urn:btih:7d7d6f3953caece1614bd1fc7c5ac1296610748a&amp;dn=The.Magnificent.Seven.%282016%29.HDCAM.x264.AAC.Makintos13&amp;tr=udp%3A%2F%2Ftracker.leechers-paradise.org%3A6969&amp;tr=udp%3A%2F%2Fzer0day.ch%3A1337&amp;tr=udp%3A%2F%2Fopen.demonii.com%3A1337&amp;tr=udp%3A%2F%2Ftracker.coppersurfer.tk%3A6969&amp;tr=udp%3A%2F%2Fexodus.desync.com%3A6969","seeders":29,"leechers":10,"uploader":"makintos13","files":1,"time":1475004454,"description":"The.Magnificent.Seven.(2016).HDCAM.x264.AAC.Makintos13\r\n\r\nScreens:\r\n \nhttps://imgmak.com/image/anD\r\n \nhttps://imgmak.com/image/anf\r\n \nhttps://imgmak.com/image/anE\r\n \nhttps://imgmak.com/image/anV\r\n \nhttps://imgmak.com/image/ang\r\n\r\n\r\nFormat : Matroska\r\nFormat version : Version 4 / Version 2\r\nFile size : 712 MiB\r\n\r\nVideo\r\nID : 1\r\nFormat : AVC\r\nFormat/Info : Advanced Video Codec\r\nFormat profile :   \r\nFormat settings, CABAC : Yes\r\nFormat settings, ReFrames : 4 frames\r\nCodec ID : V_MPEG4/ISO/AVC\r\nDuration : 2 h 8 min\r\nBit rate : 710 kb/s\r\nWidth : 720 pixels\r\nHeight : 336 pixels\r\nDisplay aspect ratio : 2.143\r\nFrame rate mode : Constant\r\nFrame rate : 29.970 (30000/1001) FPS\r\nColor space : YUV\r\nChroma subsampling : 4:2:0\r\nBit depth : 8 bits\r\nScan type : Progressive\r\nBits/(Pixel*Frame) : 0.098\r\nStream size : 651 MiB (91%)\r\n\r\nDefault : Yes\r\nForced : No\r\n\r\nAudio\r\nID : 2\r\nFormat : AAC\r\nFormat/Info : Advanced Audio Codec\r\nFormat profile : LC\r\nCodec ID : A_AAC\r\nDuration : 2 h 8 min\r\nBit rate : 64.4 kb/s\r\nChannel(s) : 2 channels\r\nChannel positions : Front: L R\r\nSampling rate : 48.0 kHz\r\nFrame rate : 46.875 FPS (1024 spf)\r\nCompression mode : Lossy\r\nDelay relative to video : 45 ms\r\nStream size : 59.0 MiB (8%)\r\nTitle : Stereo\r\nDefault : Yes\r\nForced : No\r\n\r\nSource : (unknown)thanks","torrent":{"xt":"urn:btih:7d7d6f3953caece1614bd1fc7c5ac1296610748a","amp;dn":"The.Magnificent.Seven.%282016%29.HDCAM.x264.AAC.Makintos13","amp;tr":["udp%3A%2F%2Ftracker.leechers-paradise.org%3A6969","udp%3A%2F%2Fzer0day.ch%3A1337","udp%3A%2F%2Fopen.demonii.com%3A1337","udp%3A%2F%2Ftracker.coppersurfer.tk%3A6969","udp%3A%2F%2Fexodus.desync.com%3A6969"],"infoHash":"7d7d6f3953caece1614bd1fc7c5ac1296610748a","infoHashBuffer":{"type":"Buffer","data":[125,125,111,57,83,202,236,225,97,75,209,252,124,90,193,41,102,16,116,138]},"announce":[],"urlList":[]}}